@startuml
!include style.puml
skinparam arrowThickness 1.1
skinparam arrowColor MODEL_COLOR
skinparam classBackgroundColor MODEL_COLOR

Package Model as ModelPackage <<Rectangle>>{
Class "<<interface>>\nReadOnlyAddressBook" as ReadOnlyAddressBook
Class "<<interface>>\nReadOnlyUserPrefs" as ReadOnlyUserPrefs
Class "<<interface>>\nModel" as Model
Class AddressBook
Class ModelManager
Class UserPrefs

Class UniquePersonList
Class DisjointAppointmentList
Class AppointmentList
Class Person
Class Address
Class Email
Class Name
Class Phone
Class Tag
Class Appointment
Class Note
class Subject
class Level

Class I #FFFFFF
}

Class HiddenOutside #FFFFFF
HiddenOutside ..> Model

AddressBook .up.|> ReadOnlyAddressBook

ModelManager .up.|> Model
Model .right.> ReadOnlyUserPrefs
Model .left.> ReadOnlyAddressBook
ModelManager -left-> "1" AddressBook
ModelManager -right-> "1" UserPrefs
UserPrefs .up.|> ReadOnlyUserPrefs

AddressBook *-down-> "1" DisjointAppointmentList
DisjointAppointmentList -[hidden]r-> UniquePersonList
AddressBook *-down-> "1" UniquePersonList
UniquePersonList --> "~* all" Person
Person *--> Name
Person *--> Phone
Person *--> Email
Person *--> Address
Person *--> "*" Tag
Person *--> Note
Person *--> Level
Person *--> "0...4" Subject

Person -[hidden]up--> I
UniquePersonList -[hidden]right-> I

Person *-left-> "1" AppointmentList
AppointmentList -up-> "*" Appointment
DisjointAppointmentList --> "~* all" Appointment

Name -[hidden]right-> Phone
Phone -[hidden]right-> Address
Address -[hidden]right-> Email
Email -[hidden]right-> Tag
Tag -[hidden]right-> Subject
Subject -[hidden]right-> Level

ModelManager --> "~* filtered" Person
@enduml
